<svg width="220" height="220" viewBox="0 0 220 220" fill="none" xmlns="http://www.w3.org/2000/svg">
<g clip-path="url(#clip0_108_125)">
<path d="M110 220C170.751 220 220 170.751 220 110C220 49.2487 170.751 0 110 0C49.2487 0 0 49.2487 0 110C0 170.751 49.2487 220 110 220Z" fill="#008CE7"/>
<path d="M110.031 26.667L37.0835 68.3441V151.677L110.031 193.334L182.917 151.677V68.3441L110.031 26.667ZM161.323 139.334L110.031 168.636L58.7085 139.334V80.667L110.031 51.3649L161.323 80.667V139.334Z" fill="white"/>
<path d="M144.042 129.479L110 148.906L75.9272 129.458V90.5413L110 71.083L144.042 90.5622L129.875 98.6559L110 87.2913L90.1252 98.6559V121.343L110 132.708L129.875 121.343L144.042 129.479Z" fill="white"/>
</g>
<defs>
<clipPath id="clip0_108_125">
<rect width="220" height="220" fill="white"/>
</clipPath>
</defs>
</svg>
