<svg width="33" height="11" viewBox="0 0 33 11" fill="none" xmlns="http://www.w3.org/2000/svg">
<path d="M14.6719 10.1172C14.2383 10.1172 13.8477 10.0098 13.5 9.79492C13.1484 9.58008 12.8652 9.29102 12.6504 8.92773C12.4395 8.56445 12.334 8.1582 12.334 7.70898V3.90625C12.334 3.46875 12.4414 3.07031 12.6562 2.71094C12.8672 2.34766 13.1504 2.05859 13.5059 1.84375C13.8613 1.625 14.25 1.51562 14.6719 1.51562C15.1133 1.51562 15.5117 1.62109 15.8672 1.83203C16.2227 2.04688 16.5039 2.33398 16.7109 2.69336C16.9219 3.05273 17.0273 3.45703 17.0273 3.90625V4.45703C17.0273 4.48828 17.0078 4.50391 16.9688 4.50391H15.6211C15.5898 4.50391 15.5742 4.48828 15.5742 4.45703V4C15.5742 3.69531 15.4883 3.44336 15.3164 3.24414C15.1445 3.04492 14.9297 2.94531 14.6719 2.94531C14.4414 2.94531 14.2363 3.04102 14.0566 3.23242C13.877 3.42383 13.7871 3.64844 13.7871 3.90625V7.70898C13.7871 7.9707 13.875 8.19727 14.0508 8.38867C14.2266 8.57617 14.4336 8.66992 14.6719 8.66992C14.9297 8.66992 15.1445 8.57812 15.3164 8.39453C15.4883 8.20703 15.5742 7.97852 15.5742 7.70898V7.11719H14.7363C14.6934 7.11719 14.6719 7.09766 14.6719 7.05859V5.7168C14.6719 5.67773 14.6934 5.6582 14.7363 5.6582H16.9805C17.0117 5.6582 17.0273 5.67773 17.0273 5.7168V7.70898C17.0273 8.1582 16.9219 8.56445 16.7109 8.92773C16.4961 9.29102 16.2129 9.58008 15.8613 9.79492C15.5098 10.0098 15.1133 10.1172 14.6719 10.1172Z" fill="white"/>
<path d="M20.1914 10H18.8379C18.8027 10 18.7852 9.98047 18.7852 9.94141V3.09766H17.2266C17.1875 3.09766 17.168 3.07812 17.168 3.03906L17.1797 1.69727C17.1797 1.66602 17.1953 1.65039 17.2266 1.65039H21.7852C21.8281 1.65039 21.8496 1.66602 21.8496 1.69727V3.03906C21.8496 3.07812 21.834 3.09766 21.8027 3.09766H20.2266L20.2383 9.94141C20.2383 9.98047 20.2227 10 20.1914 10Z" fill="white"/>
<path d="M23.8418 10H22.4941C22.4551 10 22.4355 9.98047 22.4355 9.94141L22.459 1.69727C22.459 1.66602 22.4746 1.65039 22.5059 1.65039H24.8145C25.5488 1.65039 26.1289 1.875 26.5547 2.32422C26.9844 2.76953 27.1992 3.37695 27.1992 4.14648C27.1992 4.70898 27.0879 5.19922 26.8652 5.61719C26.6387 6.03125 26.3457 6.35156 25.9863 6.57812C25.627 6.80469 25.2363 6.91797 24.8145 6.91797H23.9004V9.94141C23.9004 9.98047 23.8809 10 23.8418 10ZM24.8145 3.07422L23.9004 3.08594V5.46484H24.8145C25.0684 5.46484 25.2891 5.34375 25.4766 5.10156C25.6641 4.85547 25.7578 4.53711 25.7578 4.14648C25.7578 3.83398 25.6738 3.57812 25.5059 3.37891C25.3379 3.17578 25.1074 3.07422 24.8145 3.07422Z" fill="white"/>
<path d="M30.1406 10.1172C29.7148 10.1172 29.3223 10.0078 28.9629 9.78906C28.6074 9.57031 28.3203 9.2793 28.1016 8.91602C27.8867 8.54883 27.7793 8.14648 27.7793 7.70898L27.791 3.90625C27.791 3.46094 27.8984 3.06055 28.1133 2.70508C28.3242 2.3457 28.6094 2.05859 28.9688 1.84375C29.3281 1.625 29.7188 1.51562 30.1406 1.51562C30.5781 1.51562 30.9707 1.62305 31.3184 1.83789C31.6699 2.05273 31.9512 2.3418 32.1621 2.70508C32.377 3.06445 32.4844 3.46484 32.4844 3.90625L32.4961 7.70898C32.4961 8.14648 32.3906 8.54688 32.1797 8.91016C31.9648 9.27734 31.6797 9.57031 31.3242 9.78906C30.9688 10.0078 30.5742 10.1172 30.1406 10.1172ZM30.1406 8.66992C30.3828 8.66992 30.5938 8.57227 30.7734 8.37695C30.9531 8.17773 31.043 7.95508 31.043 7.70898L31.0312 3.90625C31.0312 3.64062 30.9473 3.41602 30.7793 3.23242C30.6113 3.04883 30.3984 2.95703 30.1406 2.95703C29.8945 2.95703 29.6836 3.04688 29.5078 3.22656C29.332 3.40625 29.2441 3.63281 29.2441 3.90625V7.70898C29.2441 7.9707 29.332 8.19727 29.5078 8.38867C29.6836 8.57617 29.8945 8.66992 30.1406 8.66992Z" fill="white"/>
<path d="M0 2C0 0.895431 0.895431 0 2 0H9C10.1046 0 11 0.895431 11 2V9C11 10.1046 10.1046 11 9 11H2C0.895431 11 0 10.1046 0 9V2Z" fill="#1877F2"/>
<path d="M1 6.68619C1 6.37423 1.25079 6.12134 1.56017 6.12134H2.26971C2.57908 6.12134 2.82988 6.37423 2.82988 6.68619V8.56904C2.82988 8.881 2.57908 9.13389 2.26971 9.13389H1.56017C1.25079 9.13389 1 8.881 1 8.56904V6.68619Z" fill="white"/>
<path d="M1.59751 5.53766C1.59751 5.36088 1.73963 5.21757 1.91494 5.21757C2.09025 5.21757 2.23237 5.36088 2.23237 5.53766V9.67992C2.23237 9.85669 2.09025 10 1.91494 10C1.73963 10 1.59751 9.85669 1.59751 9.67992V5.53766Z" fill="white"/>
<path d="M5.78008 5.48117C5.78008 5.16921 6.03088 4.91632 6.34025 4.91632H7.04979C7.35916 4.91632 7.60996 5.16921 7.60996 5.48117V8.30544C7.60996 8.6174 7.35916 8.87029 7.04979 8.87029H6.34025C6.03088 8.87029 5.78008 8.6174 5.78008 8.30544V5.48117Z" fill="white"/>
<path d="M6.37759 4.33264C6.37759 4.15586 6.51971 4.01255 6.69502 4.01255C6.87033 4.01255 7.01245 4.15586 7.01245 4.33264V9.41632C7.01245 9.5931 6.87033 9.7364 6.69502 9.7364C6.51971 9.7364 6.37759 9.5931 6.37759 9.41632V4.33264Z" fill="white"/>
<path d="M3.39004 4.27615C3.39004 3.96419 3.64084 3.7113 3.95021 3.7113H4.65975C4.96912 3.7113 5.21992 3.96419 5.21992 4.27615V7.36402C5.21992 7.67598 4.96912 7.92887 4.65975 7.92887H3.95021C3.64084 7.92887 3.39004 7.67598 3.39004 7.36402V4.27615Z" fill="white"/>
<path d="M3.98755 3.12762C3.98755 2.95084 4.12967 2.80753 4.30498 2.80753C4.48029 2.80753 4.62241 2.95084 4.62241 3.12761V8.55021C4.62241 8.72699 4.48029 8.87029 4.30498 8.87029C4.12967 8.87029 3.98755 8.72699 3.98755 8.55021V3.12762Z" fill="white"/>
<path d="M8.17013 2.43096C8.17013 2.119 8.42092 1.86611 8.73029 1.86611H9.43983C9.74921 1.86611 10 2.119 10 2.43096V6.19665C10 6.50861 9.74921 6.76151 9.43983 6.76151H8.73029C8.42092 6.76151 8.17013 6.50861 8.17013 6.19665V2.43096Z" fill="white"/>
<path d="M8.76764 1.32008C8.76764 1.14331 8.90975 1 9.08506 1C9.26037 1 9.40249 1.14331 9.40249 1.32008V7.38284C9.40249 7.55962 9.26037 7.70293 9.08506 7.70293C8.90975 7.70293 8.76764 7.55962 8.76764 7.38284V1.32008Z" fill="white"/>
</svg>
